<?xml version="1.0" encoding="UTF-8" standalone="no"?>
<!DOCTYPE svg PUBLIC "-//W3C//DTD SVG 1.1//EN" "http://www.w3.org/Graphics/SVG/1.1/DTD/svg11.dtd">
<svg width="100%" height="100%" version="1.1" xmlns="http://www.w3.org/2000/svg" xmlns:xlink="http://www.w3.org/1999/xlink" xml:space="preserve" xmlns:serif="http://www.serif.com/" style="fill-rule:evenodd;clip-rule:evenodd;stroke-miterlimit:1.5;">
    <g transform="matrix(0.878484,0,0,0.878484,-154.3,-153.92)">
        <g transform="matrix(2.58623,1.49316,-1.49316,2.58623,363.358,-961.733)">
            <path d="M270.019,325.269L198.314,396.974L270.574,469.234L198.314,396.974L270.019,325.269Z" style="fill:none;stroke:currentColor;stroke-width:47.76px;"/>
        </g>
        <g transform="matrix(-2.58623,-1.49316,1.49316,-2.58623,1353.92,2336.65)">
            <path d="M270.019,325.269L198.314,396.974L270.574,469.234L198.314,396.974L270.019,325.269Z" style="stroke:currentColor;stroke-width:47.76px;"/>
        </g>
        <g transform="matrix(5.69577,0,0,5.69577,-1447.59,-1525.3)">
            <path d="M405,333L452.631,360.5L452.631,415.5L405,443L357.369,415.5L357.369,360.5L405,333Z" style="fill:none;stroke:currentColor;stroke-width:25.04px;"/>
        </g>
    </g>
</svg>
