<?xml version="1.0" encoding="UTF-8" standalone="no"?>
<!DOCTYPE svg PUBLIC "-//W3C//DTD SVG 1.1//EN" "http://www.w3.org/Graphics/SVG/1.1/DTD/svg11.dtd">
<svg width="1311px" height="1135px" version="1.1" xmlns="http://www.w3.org/2000/svg" xmlns:xlink="http://www.w3.org/1999/xlink" xml:space="preserve" xmlns:serif="http://www.serif.com/" style="fill-rule:evenodd;clip-rule:evenodd;stroke-linejoin:round;stroke-miterlimit:2;">
    <g transform="matrix(-2.65214,-3.24794e-16,3.24794e-16,-2.65214,2282.66,2006.15)"  style="fill:currentColor">
        <g transform="matrix(4.16712,2.2904e-16,2.2904e-16,4.16712,-1074.05,-1374.15)">
            <path d="M369.33,408.594L440.67,408.594L452.631,415.5L405,443L357.369,415.5L369.33,408.594ZM440.67,408.594L369.33,408.594L405,429.189C414.149,423.906 431.521,413.877 440.67,408.594Z"/>
        </g>
        <g transform="matrix(-2.08356,3.60883,-3.60883,-2.08356,3079.83,-25.7135)">
            <path d="M369.33,408.594L440.67,408.594L452.631,415.5L405,443L357.369,415.5L369.33,408.594ZM440.67,408.594L369.33,408.594L405,429.189C414.149,423.906 431.521,413.877 440.67,408.594Z"/>
        </g>
        <g transform="matrix(-2.08356,-3.60883,3.60883,-2.08356,-164.891,2897.44)">
            <path d="M369.33,408.594L440.67,408.594L452.631,415.5L405,443L357.369,415.5L369.33,408.594ZM440.67,408.594L369.33,408.594L405,429.189C414.149,423.906 431.521,413.877 440.67,408.594Z"/>
        </g>
    </g>
</svg>
