<?xml version="1.0" encoding="UTF-8" standalone="no"?>
<!DOCTYPE svg PUBLIC "-//W3C//DTD SVG 1.1//EN" "http://www.w3.org/Graphics/SVG/1.1/DTD/svg11.dtd">
<svg width="660px" height="660px" version="1.1" xmlns="http://www.w3.org/2000/svg" xmlns:xlink="http://www.w3.org/1999/xlink" xml:space="preserve" xmlns:serif="http://www.serif.com/" style="fill-rule:evenodd;clip-rule:evenodd;stroke-linejoin:round;stroke-miterlimit:2;">
    <g transform="matrix(1.31537,0,0,1.31537,-315.189,-299.404)">
        <path d="M490.5,228C628.755,228 741,340.245 741,478.5C741,616.755 628.755,729 490.5,729C352.245,729 240,616.755 240,478.5C240,340.245 352.245,228 490.5,228ZM490.5,283.751C383.015,283.751 295.751,371.015 295.751,478.5C295.751,585.985 383.015,673.249 490.5,673.249C597.985,673.249 685.249,585.985 685.249,478.5C685.249,371.015 597.985,283.751 490.5,283.751Z" style="fill:currentColor;"/>
    </g>
</svg>
